<svg width="657" height="420" viewBox="0 0 657 420" fill="none" xmlns="http://www.w3.org/2000/svg">
<path d="M34.5447 1.96075V393.157" stroke="#F0F0F0" stroke-opacity="0.3"/>
<path d="M123.188 1.96075V393.157" stroke="#F0F0F0" stroke-opacity="0.3"/>
<path d="M210.527 1.96075V393.157" stroke="#F0F0F0" stroke-opacity="0.3"/>
<path d="M299.17 1.96075V393.157" stroke="#F0F0F0" stroke-opacity="0.3"/>
<path d="M386.509 1.96075V393.157" stroke="#F0F0F0" stroke-opacity="0.3"/>
<path d="M475.152 1.96075V393.157" stroke="#F0F0F0" stroke-opacity="0.3"/>
<path d="M562.491 1.96075V393.157" stroke="#F0F0F0" stroke-opacity="0.3"/>
<path d="M652.438 1.96075V393.157" stroke="#F0F0F0" stroke-opacity="0.3"/>
<path d="M35.1964 393.853H651.786" stroke="#F0F0F0" stroke-opacity="0.3"/>
<path d="M35.1964 296.402H651.786" stroke="#F0F0F0" stroke-opacity="0.3"/>
<path d="M35.1964 198.951H651.786" stroke="#F0F0F0" stroke-opacity="0.3"/>
<path d="M35.1964 100.108H651.786" stroke="#F0F0F0" stroke-opacity="0.3"/>
<path d="M35.1964 1.26471H651.786" stroke="#F0F0F0" stroke-opacity="0.3"/>
<path d="M35.1964 393.853H651.786" stroke="#F0F0F0" stroke-opacity="0.3"/>
<path d="M34.5447 1.96075V393.157" stroke="#F0F0F0" stroke-opacity="0.3"/>
<path d="M35.1964 25.4326C35.1964 25.4326 88.0469 134.967 123.281 142.791C158.514 150.615 176.131 150.615 211.365 150.615C246.598 150.615 264.215 95.8479 299.449 95.8479C334.683 95.8479 352.299 338.389 387.533 338.389C422.767 338.389 440.384 131.056 475.617 131.056C510.851 131.056 528.468 346.213 563.702 346.213C598.935 346.213 651.786 41.0804 651.786 41.0804" stroke="#A6CEE3" stroke-opacity="0.3" stroke-width="2"/>
<path d="M35.1965 31.1961C33.8138 31.1961 32.4877 30.6096 31.5099 29.5656C30.532 28.5216 29.9825 27.1055 29.9822 25.6289C29.9818 24.1522 30.5307 22.7359 31.508 21.6913C32.4854 20.6468 33.8112 20.0596 35.1939 20.0588C36.5765 20.0581 37.9029 20.6439 38.8812 21.6874C39.8595 22.7309 40.4097 24.1466 40.4107 25.6233C40.4118 27.0999 39.8636 28.5166 38.8867 29.5616C37.9099 30.6067 36.5844 31.1946 35.2017 31.1961L35.1965 31.1961Z" fill="#A6CEE3" fill-opacity="0.3"/>
<path d="M122.536 148.137C121.153 148.137 119.827 147.551 118.849 146.507C117.871 145.463 117.322 144.047 117.321 142.57C117.321 141.093 117.87 139.677 118.847 138.632C119.825 137.588 121.15 137.001 122.533 137C123.916 136.999 125.242 137.585 126.22 138.629C127.199 139.672 127.749 141.088 127.75 142.564C127.751 144.041 127.203 145.458 126.226 146.503C125.249 147.548 123.924 148.136 122.541 148.137H122.536Z" fill="#A6CEE3" fill-opacity="0.3"/>
<path d="M211.179 156.49C209.796 156.49 208.47 155.904 207.492 154.86C206.514 153.816 205.965 152.4 205.964 150.923C205.964 149.446 206.513 148.03 207.49 146.985C208.467 145.941 209.793 145.354 211.176 145.353C212.559 145.352 213.885 145.938 214.863 146.981C215.842 148.025 216.392 149.441 216.393 150.917C216.394 152.394 215.846 153.811 214.869 154.856C213.892 155.901 212.566 156.489 211.184 156.49H211.179Z" fill="#A6CEE3" fill-opacity="0.3"/>
<path d="M298.518 100.804C297.135 100.804 295.809 100.217 294.831 99.1734C293.853 98.1294 293.304 96.7134 293.304 95.2367C293.303 93.7601 293.852 92.3437 294.829 91.2992C295.807 90.2546 297.133 89.6674 298.515 89.6667C299.898 89.6659 301.224 90.2517 302.203 91.2952C303.181 92.3387 303.731 93.7545 303.732 95.2311C303.733 96.7078 303.185 98.1244 302.208 99.1695C301.231 100.215 299.906 100.802 298.523 100.804H298.518Z" fill="#A6CEE3" fill-opacity="0.3"/>
<path d="M387.161 344.431C385.778 344.431 384.452 343.845 383.474 342.801C382.496 341.757 381.947 340.341 381.946 338.864C381.946 337.388 382.495 335.971 383.472 334.927C384.45 333.882 385.775 333.295 387.158 333.294C388.541 333.293 389.867 333.879 390.845 334.923C391.824 335.966 392.374 337.382 392.375 338.859C392.376 340.335 391.828 341.752 390.851 342.797C389.874 343.842 388.549 344.43 387.166 344.431H387.161Z" fill="#A6CEE3" fill-opacity="0.3"/>
<path d="M474.5 137C473.117 137 471.791 136.413 470.813 135.369C469.836 134.325 469.286 132.909 469.286 131.433C469.285 129.956 469.834 128.54 470.812 127.495C471.789 126.451 473.115 125.863 474.497 125.863C475.88 125.862 477.206 126.448 478.185 127.491C479.163 128.535 479.713 129.951 479.714 131.427C479.715 132.904 479.167 134.32 478.19 135.366C477.213 136.411 475.888 136.999 474.505 137H474.5Z" fill="#A6CEE3" fill-opacity="0.3"/>
<path d="M563.143 351.392C561.76 351.392 560.434 350.806 559.456 349.762C558.478 348.718 557.929 347.302 557.929 345.825C557.928 344.348 558.477 342.932 559.454 341.887C560.432 340.843 561.757 340.256 563.14 340.255C564.523 340.254 565.849 340.84 566.828 341.883C567.806 342.927 568.356 344.343 568.357 345.819C568.358 347.296 567.81 348.713 566.833 349.758C565.856 350.803 564.531 351.391 563.148 351.392H563.143Z" fill="#A6CEE3" fill-opacity="0.3"/>
<path d="M651.786 46.5098C650.403 46.5098 649.077 45.9233 648.099 44.8793C647.121 43.8353 646.572 42.4192 646.571 40.9426C646.571 39.4659 647.12 38.0496 648.097 37.0051C649.075 35.9605 650.4 35.3733 651.783 35.3726C653.166 35.3718 654.492 35.9576 655.471 37.0011C656.449 38.0446 656.999 39.4604 657 40.937C657.001 42.4137 656.453 43.8303 655.476 44.8754C654.499 45.9204 653.174 46.5083 651.791 46.5098L651.786 46.5098Z" fill="#A6CEE3" fill-opacity="0.3"/>
</svg>
